<svg viewBox="-4 -4 340 340" fill="none" xmlns="http://www.w3.org/2000/svg">
<path d="M112.827 119.393L98.2185 104.785C95.615 102.181 95.615 97.9603 98.2185 95.3568C100.822 92.7534 105.043 92.7534 107.647 95.3568L122.255 109.965C124.177 111.888 126.784 112.968 129.503 112.968H230.783C234.465 112.968 237.449 115.952 237.449 119.634C237.449 120.283 237.355 120.928 237.169 121.55C237.169 121.55 237.169 121.55 237.169 121.55L220.569 176.883C219.723 179.703 217.127 181.634 214.183 181.634H136.329C132.371 181.634 129.162 184.843 129.162 188.801C129.162 192.759 132.371 195.967 136.329 195.967H198.579C202.261 195.967 205.246 198.952 205.246 202.634C205.246 206.316 202.261 209.301 198.579 209.301H122.496C118.814 209.301 115.829 206.316 115.829 202.634V126.641C115.829 123.923 114.749 121.316 112.827 119.393ZM125.954 236.967C120.362 236.967 115.829 232.434 115.829 226.842C115.829 221.251 120.362 216.717 125.954 216.717C131.546 216.717 136.079 221.251 136.079 226.842C136.079 232.434 131.546 236.967 125.954 236.967ZM208.954 236.967C203.362 236.967 198.829 232.434 198.829 226.842C198.829 221.251 203.362 216.717 208.954 216.717C214.546 216.717 219.079 221.251 219.079 226.842C219.079 232.434 214.546 236.967 208.954 236.967Z" stroke="black" stroke-width="5"/>
</svg>
