<svg width="397" height="122" viewBox="0 0 397 122" fill="none" xmlns="http://www.w3.org/2000/svg">
<g clip-path="url(#clip0_222_1362)">
<path d="M272.531 1.82426C269.96 5.01678 262.247 21.1314 254.837 38.7663C250.904 47.8878 246.064 58.5295 244.098 62.3301C237.595 74.6441 241.527 86.6542 251.962 86.6542C255.138 86.6542 264.213 83.0056 276.312 76.9245C287.05 71.6037 298.393 66.4348 301.569 65.3707C309.736 62.6342 325.313 64.3065 336.807 69.0193C356.317 77.0766 370.382 80.2691 381.423 79.0529C391.706 77.9888 396.243 75.8604 396.243 72.2118C396.243 69.7794 391.706 68.5632 387.926 70.0834C378.851 73.58 362.971 70.9955 339.681 62.0262C333.026 59.5937 323.195 57.1613 317.449 56.7052C305.047 55.6411 298.847 57.4654 272.531 70.0834C262.096 74.9482 252.265 79.0529 250.753 79.0529C246.216 79.0529 248.333 72.0598 259.675 49.4081C265.12 38.6142 271.17 24.932 273.287 19.003C275.405 13.2262 277.673 7.6012 278.43 6.68905C280.245 4.40867 278.581 -4.57764e-05 276.009 -4.57764e-05C274.951 -4.57764e-05 273.439 0.912104 272.531 1.82426Z" fill="#F9CB00"/>
<path d="M178.613 26.9084C177.553 33.4455 175.738 42.567 174.377 47.1277C170.747 60.5059 157.742 92.4311 150.33 105.809C144.735 116.451 143.978 118.428 145.945 120.099C147.154 121.011 148.818 121.468 149.726 120.86C152.145 119.34 159.254 104.441 166.362 85.438C169.992 76.1645 173.319 68.4112 173.923 68.4112C174.529 68.4112 175.437 72.0598 175.89 76.6206C176.798 85.59 181.939 97.2959 185.115 97.2959C186.174 97.2959 188.291 95.9277 189.955 94.1034C192.375 91.367 192.829 88.4785 192.829 74.3402C192.829 65.2187 193.282 57.7694 193.736 57.7694C194.341 57.7694 198.576 62.9383 203.264 69.1713C214.002 83.4617 216.573 83.9178 224.891 72.6679L230.638 64.6105L231.394 69.9314C231.848 73.276 232.906 75.2523 234.419 75.2523C236.082 75.2523 236.839 73.124 237.142 67.043C237.897 53.8168 232.605 53.3608 221.262 65.9788C214.91 73.124 214.153 73.4281 212.641 70.8436C207.952 63.0903 200.542 54.5769 196.761 52.6006C192.979 50.6243 192.375 49.2561 191.467 40.7427C189.803 24.78 187.081 15.9626 183.451 15.5066C180.729 15.0505 180.275 16.2666 178.613 26.9084ZM185.115 43.3271C186.023 50.0161 185.72 51.2324 182.847 52.9047C178.763 55.489 178.31 54.881 179.822 48.4959C180.578 45.6075 181.637 41.3507 182.242 38.9184C183.451 33.2935 184.057 34.0535 185.115 43.3271ZM187.535 73.8841C187.535 84.2217 187.081 88.3264 185.72 87.8703C183.603 87.1103 179.974 75.4043 179.974 69.1713C179.974 64.0025 183.905 57.1613 186.174 58.5296C186.93 59.1376 187.535 65.9788 187.535 73.8841Z" fill="#F9CB00"/>
<path d="M126.889 21.5875C124.167 24.3239 119.024 32.9894 115.243 40.7426C109.799 52.4486 108.438 56.8572 107.833 66.5869C106.925 79.2049 105.413 82.2454 98.1535 85.286C92.5577 87.5664 86.6594 84.9819 85.2983 79.509C83.9371 74.4922 80.7611 75.1002 73.048 82.0935C69.2671 85.438 65.6374 88.1744 65.0323 88.1744C64.4274 88.1744 63.3688 86.5021 62.9151 84.3738C62.1589 81.1813 61.1002 80.5731 56.2606 80.5731C51.4209 80.5731 48.0937 82.7015 32.6674 94.8635C14.6701 109.154 9.83048 112.042 8.16686 109.154C4.68838 103.529 18.4511 71.9077 33.4237 51.2324C47.64 31.9252 51.8746 27.2124 55.2019 27.6685C57.4705 27.9725 58.2266 27.2124 58.2266 24.3239C58.2266 18.547 51.5722 18.395 45.5226 23.8679C27.3741 40.5906 0.151238 89.6946 0 106.113C0 114.475 2.26857 117.06 9.528 117.06C16.7874 117.06 21.6271 114.475 32.5162 104.593C42.0442 96.0797 54.4457 86.6542 56.1094 86.6542C56.8655 86.6542 57.4705 87.7183 57.4705 88.9346C57.4705 91.5189 62.7638 97.2959 65.0323 97.2959C65.7886 97.2959 69.1158 94.8635 72.4431 91.975C75.6191 89.0866 78.6438 86.6542 79.0975 86.6542C79.5512 86.6542 82.576 88.3264 85.6008 90.4548C92.5577 95.1675 96.4899 95.1675 103.296 90.6068L108.589 86.9582L111.009 92.5832C112.219 95.7757 115.394 100.184 117.815 102.313C123.41 107.025 134.904 109.306 138.383 106.417C142.163 103.377 141.105 102.313 132.938 101.401C123.864 100.336 120.991 98.0561 117.209 89.6946C113.882 82.3974 114.336 81.3333 126.283 66.1308C141.105 47.2797 147.306 29.3408 142.163 19.6112C139.593 15.0505 132.635 15.9626 126.889 21.5875ZM138.383 24.3239C140.651 27.9725 135.358 41.6548 126.889 54.5769C118.269 67.4991 113.429 73.2759 113.429 70.3875C113.429 62.3301 123.561 37.8542 131.123 27.6685C134.904 22.6516 136.719 21.7395 138.383 24.3239Z" fill="#F9CB00"/>
<path d="M291.134 29.0367C281.152 30.4049 275.254 32.8374 275.254 35.5738C275.254 39.5264 279.791 40.7426 286.445 38.7663C289.773 37.7021 296.275 36.3339 300.662 35.7258C306.862 34.9656 308.526 34.0535 308.526 31.9252C308.526 28.5806 302.325 27.6684 291.134 29.0367Z" fill="#F9CB00"/>
</g>
<defs>
<clipPath id="clip0_222_1362">
<rect width="397" height="122" fill="white"/>
</clipPath>
</defs>
</svg>
